<svg width="48" height="48" viewBox="0 0 48 48" fill="none" xmlns="http://www.w3.org/2000/svg">
<path d="M4 18V14C4 8 8 4 14 4H34C40 4 44 8 44 14V18" stroke="#1D1D1F" stroke-width="2" stroke-miterlimit="10" stroke-linecap="round" stroke-linejoin="round"/>
<path d="M4 30V34C4 40 8 44 14 44H34C40 44 44 40 44 34V30" stroke="#1D1D1F" stroke-width="2" stroke-miterlimit="10" stroke-linecap="round" stroke-linejoin="round"/>
<path d="M21.52 12.58L15.12 16.1401C13.68 16.9401 12.48 18.96 12.48 20.62V27.4001C12.48 29.0601 13.66 31.08 15.12 31.88L21.52 35.44C22.88 36.2 25.12 36.2 26.5 35.44L32.9 31.88C34.34 31.08 35.54 29.0601 35.54 27.4001V20.62C35.54 18.96 34.36 16.9401 32.9 16.1401L26.5 12.58C25.12 11.8 22.88 11.8 21.52 12.58Z" stroke="#1D1D1F" stroke-width="2" stroke-linecap="round" stroke-linejoin="round"/>
<path d="M13.3999 18.52L23.9999 24.66L34.5199 18.5601" stroke="#1D1D1F" stroke-width="2" stroke-linecap="round" stroke-linejoin="round"/>
<path d="M24 35.54V24.64" stroke="#1D1D1F" stroke-width="2" stroke-linecap="round" stroke-linejoin="round"/>
</svg>
