<svg width="24" height="24" viewBox="0 0 24 24" fill="none" xmlns="http://www.w3.org/2000/svg">
<path d="M19.3653 12.4815L14.3853 17.4502C14.2253 17.6092 14.0253 17.6887 13.8253 17.6887C13.6253 17.6887 13.4253 17.6092 13.2653 17.4502C12.9453 17.1322 12.9453 16.6353 13.2653 16.3173L16.8853 12.7001H5.20527C4.76527 12.7001 4.40527 12.3423 4.40527 11.9051C4.40527 11.4678 4.76527 11.1101 5.20527 11.1101H16.8853L13.2653 7.49284C12.9453 7.17484 12.9453 6.67796 13.2653 6.35996C13.5853 6.04196 14.0853 6.04196 14.4053 6.35996L19.3853 11.3287C19.6853 11.6666 19.6853 12.1833 19.3653 12.4815Z" fill="#1D1D1F"/>
</svg>
