<svg width="48" height="48" viewBox="0 0 48 48" fill="none" xmlns="http://www.w3.org/2000/svg">
<path d="M21.5 4.89989C22.88 3.71989 25.14 3.71989 26.54 4.89989L29.7 7.62011C30.3 8.14011 31.42 8.56005 32.22 8.56005H35.62C37.74 8.56005 39.48 10.2999 39.48 12.4199V15.8201C39.48 16.6001 39.9 17.7401 40.42 18.3401L43.14 21.5C44.32 22.88 44.32 25.14 43.14 26.54L40.42 29.6999C39.9 30.2999 39.48 31.42 39.48 32.22V35.6201C39.48 37.7401 37.74 39.48 35.62 39.48H32.22C31.44 39.48 30.3 39.8999 29.7 40.4199L26.54 43.1399C25.16 44.3199 22.9 44.3199 21.5 43.1399L18.34 40.4199C17.74 39.8999 16.62 39.48 15.82 39.48H12.36C10.24 39.48 8.5 37.7401 8.5 35.6201V32.1999C8.5 31.4199 8.08002 30.2999 7.58002 29.6999L4.88001 26.52C3.72001 25.14 3.72001 22.9 4.88001 21.52L7.58002 18.3401C8.08002 17.7401 8.5 16.6201 8.5 15.8401V12.4199C8.5 10.2999 10.24 8.56005 12.36 8.56005H15.82C16.6 8.56005 17.74 8.14011 18.34 7.62011L21.5 4.89989Z" stroke="#1D1D1F" stroke-width="2" stroke-linecap="round" stroke-linejoin="round"/>
<path d="M19.78 29.64L22.68 31.88C23.06 32.26 23.9 32.44 24.46 32.44H28C29.12 32.44 30.34 31.6001 30.62 30.4801L32.86 23.64C33.32 22.34 32.48 21.2 31.08 21.2H27.34C26.78 21.2 26.32 20.7402 26.4 20.0802L26.86 17.0802C27.04 16.2402 26.48 15.3001 25.64 15.0201C24.9 14.7401 23.96 15.12 23.58 15.68L19.74 21.38" stroke="#1D1D1F" stroke-width="2" stroke-miterlimit="10"/>
<path d="M15 29.6399V20.48C15 19.16 15.56 18.7 16.88 18.7H17.82C19.12 18.7 19.7 19.16 19.7 20.48V29.6399C19.7 30.9399 19.14 31.4199 17.82 31.4199H16.88C15.56 31.4199 15 30.9599 15 29.6399Z" stroke="#1D1D1F" stroke-width="2" stroke-linecap="round" stroke-linejoin="round"/>
</svg>
