<svg width="32" height="32" viewBox="0 0 32 32" fill="none" xmlns="http://www.w3.org/2000/svg">
<path d="M29.3333 12.0001V20.0001C29.3333 23.3334 28.6667 25.6668 27.1733 27.1734L18.6667 18.6668L28.9734 8.36011C29.2134 9.41344 29.3333 10.6134 29.3333 12.0001Z" stroke="#6E6E73" stroke-width="2" stroke-linecap="round" stroke-linejoin="round"/>
<path d="M28.9734 8.36009L8.35999 28.9734C4.34666 28.0534 2.66667 25.2801 2.66667 20.0001V12.0001C2.66667 5.33341 5.33334 2.66675 12 2.66675H20C25.28 2.66675 28.0534 4.34675 28.9734 8.36009Z" stroke="#6E6E73" stroke-width="2" stroke-linecap="round" stroke-linejoin="round"/>
<path d="M27.1733 27.1734C25.6667 28.6668 23.3333 29.3334 20 29.3334H12C10.6133 29.3334 9.41332 29.2134 8.35999 28.9734L18.6667 18.6667L27.1733 27.1734Z" stroke="#6E6E73" stroke-width="2" stroke-linecap="round" stroke-linejoin="round"/>
<path d="M8.31998 10.64C9.22665 6.73329 15.0933 6.73329 16 10.64C16.52 12.9333 15.08 14.88 13.8133 16.08C12.8933 16.96 11.44 16.96 10.5067 16.08C9.24 14.88 7.78665 12.9333 8.31998 10.64Z" stroke="#6E6E73" stroke-width="2"/>
<path d="M12.1261 11.6H12.1381" stroke="#6E6E73" stroke-width="2" stroke-linecap="round" stroke-linejoin="round"/>
</svg>
